{
  "accessors": [
    {
      "bufferView": 2,
      "componentType": 5126,
      "count": 564,
      "max": [
        15.725625038146973,
        21.012557983398438,
        15.725625038146973
      ],
      "min": [
        -15.725625038146973,
        -14.860140800476074,
        -15.725625038146973
      ],
      "type": "VEC3"
    },
    {
      "bufferView": 2,
      "byteOffset": 6768,
      "componentType": 5126,
      "count": 564,
      "max": [
        0.9999885559082031,
        0.9999240040779114,
        0.9999884963035583
      ],
      "min": [
        -0.9999885559082031,
        -1.0,
        -0.9999885559082031
      ],
      "type": "VEC3"
    },
    {
      "bufferView": 3,
      "componentType": 5126,
      "count": 564,
      "max": [
        0.9998703002929688,
        0.9992465972900391,
        0.9998782873153687,
        1.0
      ],
      "min": [
        -0.9998522996902466,
        -0.9945510625839233,
        -0.9998693466186523,
        1.0
      ],
      "type": "VEC4"
    },
    {
      "bufferView": 1,
      "componentType": 5126,
      "count": 564,
      "max": [
        0.9928069710731506,
        0.9833002090454102
      ],
      "min": [
        0.029417971149086952,
        0.02082829922437668
      ],
      "type": "VEC2"
    },
    {
      "bufferView": 1,
      "byteOffset": 4512,
      "componentType": 5126,
      "count": 564,
      "max": [
        0.9928069710731506,
        0.9833002090454102
      ],
      "min": [
        0.029417971149086952,
        0.02082829922437668
      ],
      "type": "VEC2"
    },
    {
      "bufferView": 1,
      "byteOffset": 9024,
      "componentType": 5126,
      "count": 564,
      "max": [
        0.9928069710731506,
        0.9833002090454102
      ],
      "min": [
        0.029417971149086952,
        0.02082829922437668
      ],
      "type": "VEC2"
    },
    {
      "bufferView": 1,
      "byteOffset": 13536,
      "componentType": 5126,
      "count": 564,
      "max": [
        0.9928069710731506,
        0.9833002090454102
      ],
      "min": [
        0.029417971149086952,
        0.02082829922437668
      ],
      "type": "VEC2"
    },
    {
      "bufferView": 1,
      "byteOffset": 18048,
      "componentType": 5126,
      "count": 564,
      "max": [
        0.9928069710731506,
        0.9833002090454102
      ],
      "min": [
        0.029417971149086952,
        0.02082829922437668
      ],
      "type": "VEC2"
    },
    {
      "bufferView": 1,
      "byteOffset": 22560,
      "componentType": 5126,
      "count": 564,
      "max": [
        0.9928069710731506,
        0.9833002090454102
      ],
      "min": [
        0.029417971149086952,
        0.02082829922437668
      ],
      "type": "VEC2"
    },
    {
      "bufferView": 1,
      "byteOffset": 27072,
      "componentType": 5126,
      "count": 564,
      "max": [
        0.9928069710731506,
        0.9833002090454102
      ],
      "min": [
        0.029417971149086952,
        0.02082829922437668
      ],
      "type": "VEC2"
    },
    {
      "bufferView": 1,
      "byteOffset": 31584,
      "componentType": 5126,
      "count": 564,
      "max": [
        0.9928069710731506,
        0.9833002090454102
      ],
      "min": [
        0.029417971149086952,
        0.02082829922437668
      ],
      "type": "VEC2"
    },
    {
      "bufferView": 1,
      "byteOffset": 36096,
      "componentType": 5126,
      "count": 564,
      "max": [
        0.9928069710731506,
        0.9833002090454102
      ],
      "min": [
        0.029417971149086952,
        0.02082829922437668
      ],
      "type": "VEC2"
    },
    {
      "bufferView": 1,
      "byteOffset": 40608,
      "componentType": 5126,
      "count": 564,
      "max": [
        0.9928069710731506,
        0.9833002090454102
      ],
      "min": [
        0.029417971149086952,
        0.02082829922437668
      ],
      "type": "VEC2"
    },
    {
      "bufferView": 0,
      "componentType": 5125,
      "count": 2784,
      "type": "SCALAR"
    }
  ],
  "asset": {
    "extras": {
      "author": "bariacg (https://sketchfab.com/bariacg)",
      "license": "CC-BY-NC-4.0 (http://creativecommons.org/licenses/by-nc/4.0/)",
      "source": "https://sketchfab.com/3d-models/apple-8cc60d44baec49558156ac767839c2ed",
      "title": "Apple"
    },
    "generator": "Sketchfab-12.65.0",
    "version": "2.0"
  },
  "bufferViews": [
    {
      "buffer": 0,
      "byteLength": 11136,
      "name": "floatBufferViews",
      "target": 34963
    },
    {
      "buffer": 0,
      "byteLength": 45120,
      "byteOffset": 11136,
      "byteStride": 8,
      "name": "floatBufferViews",
      "target": 34962
    },
    {
      "buffer": 0,
      "byteLength": 13536,
      "byteOffset": 56256,
      "byteStride": 12,
      "name": "floatBufferViews",
      "target": 34962
    },
    {
      "buffer": 0,
      "byteLength": 9024,
      "byteOffset": 69792,
      "byteStride": 16,
      "name": "floatBufferViews",
      "target": 34962
    }
  ],
  "buffers": [
    {
      "byteLength": 78816,
      "uri": "scene.bin"
    }
  ],
  "images": [
    {
      "uri": "textures/Apple_baseColor.png"
    },
    {
      "uri": "textures/Apple_metallicRoughness.png"
    },
    {
      "uri": "textures/Apple_normal.png"
    }
  ],
  "materials": [
    {
      "doubleSided": true,
      "name": "Apple",
      "normalTexture": {
        "index": 2
      },
      "pbrMetallicRoughness": {
        "baseColorTexture": {
          "index": 0
        },
        "metallicFactor": 0.0,
        "metallicRoughnessTexture": {
          "index": 1
        },
        "roughnessFactor": 0.7761051829268293
      }
    }
  ],
  "meshes": [
    {
      "name": "Apple_Apple_0",
      "primitives": [
        {
          "attributes": {
            "NORMAL": 1,
            "POSITION": 0,
            "TANGENT": 2,
            "TEXCOORD_0": 3,
            "TEXCOORD_1": 4,
            "TEXCOORD_2": 5,
            "TEXCOORD_3": 6,
            "TEXCOORD_4": 7,
            "TEXCOORD_5": 8,
            "TEXCOORD_6": 9,
            "TEXCOORD_7": 10,
            "TEXCOORD_8": 11,
            "TEXCOORD_9": 12
          },
          "indices": 13,
          "material": 0,
          "mode": 4
        }
      ]
    }
  ],
  "nodes": [
    {
      "children": [
        1
      ],
      "matrix": [
        1.0,
        0.0,
        0.0,
        0.0,
        0.0,
        2.220446049250313e-16,
        -1.0,
        0.0,
        0.0,
        1.0,
        2.220446049250313e-16,
        0.0,
        0.0,
        0.0,
        0.0,
        1.0
      ],
      "name": "Sketchfab_model"
    },
    {
      "children": [
        2
      ],
      "matrix": [
        1.0,
        0.0,
        0.0,
        0.0,
        0.0,
        0.0,
        1.0,
        0.0,
        0.0,
        -1.0,
        0.0,
        0.0,
        0.0,
        0.0,
        0.0,
        1.0
      ],
      "name": "8274a4312ffa455f82f4da24abea47a9.fbx"
    },
    {
      "children": [
        3
      ],
      "name": "RootNode"
    },
    {
      "children": [
        4
      ],
      "matrix": [
        2.5399999618530273,
        0.0,
        0.0,
        0.0,
        0.0,
        2.5399999618529936,
        4.1381852677223203e-07,
        0.0,
        0.0,
        -4.1381852677223203e-07,
        2.5399999618529936,
        0.0,
        0.0,
        0.0,
        0.0,
        1.0
      ],
      "name": "Apple"
    },
    {
      "mesh": 0,
      "name": "Apple_Apple_0"
    }
  ],
  "samplers": [
    {
      "magFilter": 9729,
      "minFilter": 9987,
      "wrapS": 10497,
      "wrapT": 10497
    }
  ],
  "scene": 0,
  "scenes": [
    {
      "name": "Sketchfab_Scene",
      "nodes": [
        0
      ]
    }
  ],
  "textures": [
    {
      "sampler": 0,
      "source": 0
    },
    {
      "sampler": 0,
      "source": 1
    },
    {
      "sampler": 0,
      "source": 2
    }
  ]
}
